# xmcd
#
# Track frame offsets:
#	150
#	17860
#	30913
#	47140
#	64168
#	79455
#	92850
#	105833
#	117473
#	133380
#	149708
#	168000
#	183378
#	198940
#	214110
#	231963
#	248660
#	265993
#	277393
#
# Disc length: 3978
#
# Revision: 1
# Processed by: cddbd v1.5.1PL0 Copyright (c) Steve Scherf et al.
# Submitted via: CDex 1.50beta10
# Normalized: r0:DSETVAR1,TDELIM( - )
#
DISCID=1e0f8813
DTITLE=Various Artist - All Time 75 Salsa and Dance Favourites [CD3)
DYEAR=1991
DGENRE=Salsa
TTITLE0=Garcia - Conga
TTITLE1=McCoy - Soul Cha Cha
TTITLE2=H. Hilderbrandt-Winhauer, Anna Lia Bright - Chega
TTITLE3=Trad. Arr. Majer, van Ravenswaay - Rajos de La Luna
TTITLE4=Castro, Del Cesar - Pinto Domingueira
TTITLE5=David - Madre De Deus
TTITLE6=Whiting, Lorenzo - Sleepy Time Gal
TTITLE7=Trad. - The Night Goes On
TTITLE8=H. Hilderbrandt-Winhauer, Anna Lia Bright - Apita
TTITLE9=H. Hilderbrandt-Winhauer, Antonio Portela - Rio
TTITLE10=Barrosa, Russel - Brazil
TTITLE11=Trad. Arr. Majer, van Ravenswaay - Le Gusta Su Chocolate
TTITLE12=Trad. Arr. Majer, van Ravenswaay - Labios Rajos
TTITLE13=En, Del Cesar - Puerto de Oro
TTITLE14=Trad. - Hasta Manana
TTITLE15=H. Hilderbrandt-Winhauer, Viviana Martinez - Pra Ser So Whoman
TTITLE16=H. Hilderbrandt-Winhauer, Anna Lia Bright - Nao Sei
TTITLE17=Machuca - Que Siga El Baile
TTITLE18=H. Hilderbrandt-Winhauer - Mato
EXTD=YEAR: 1991
EXTT0=
EXTT1=
EXTT2=
EXTT3=
EXTT4=
EXTT5=
EXTT6=
EXTT7=
EXTT8=
EXTT9=
EXTT10=
EXTT11=
EXTT12=
EXTT13=
EXTT14=
EXTT15=
EXTT16=
EXTT17=
EXTT18=
PLAYORDER=
